<?xml version="1.0" encoding="utf-8"?>
<!-- Generator: Adobe Illustrator 19.0.0, SVG Export Plug-In . SVG Version: 6.00 Build 0)  -->
<svg version="1.1" xmlns="http://www.w3.org/2000/svg" xmlns:xlink="http://www.w3.org/1999/xlink" x="0px" y="0px"
	 viewBox="0 0 229.3 230.2" style="enable-background:new 0 0 229.3 230.2;" xml:space="preserve">
<style type="text/css">
	.st0{fill:#FFD100;stroke:#000000;stroke-width:1.1967;}
	.st1{fill:#FFDD00;}
	.st2{stroke:#FFFFFF;stroke-width:1.1967;}
	.st3{fill:#FFD100;}
	.st4{stroke:#000000;stroke-width:1.1967;stroke-linecap:square;}
	.st5{stroke:#000000;stroke-width:0.5984;}
</style>
<g id="Ebene_1">
	<g>
		<circle class="st0" cx="114.9" cy="114.9" r="113.4"/>
		<path class="st1" d="M157.7,75.7"/>
		<circle cx="114.9" cy="114.9" r="85.6"/>
		<g>
			<path class="st2" d="M178.4,152.8c13.8-8.2,13.1-23.2,11-29.9c-2.8-8.6-6.6-12.2-14.6-17.4c-5.9-3.9-13.1-5.5-15-5.7
				c-1.4-0.2-1.4-0.2-1.4-0.2c1,0.1-34.3,0-34.3,0l17-12.9h12.3V75.1l-11.5-7.9H108V75l3.7,3.7L91.2,94l-7.4-7.4h4v-7.4L76.3,67.2
				H20.9l0.1,8.1C23.6,77.6,32,86.6,32,86.6h7.6l25,22.9l0,21.5l-9.4,0v8.6l12.2,12.2l36.7,0.1l0.1,29.9l-9.1-0.1v8l12.2,12.9
				c0,0,58.8,0,59.6,0c0.2,0,1.2-0.1,1.4-0.1c25.1-6.4,23.8-27.7,21.8-35.1C187.9,159.6,178.4,152.8,178.4,152.8z M149.4,179.3
				c0,2.5-1.2,2.1-1.4,2.3c-0.2,0.2-1.5,0-2,0c-0.5,0-0.7-0.7-0.7-0.7s0-19.2,0-19.7c0-0.6,0.2-1,0.8-1c0.8,0,1.5,0,2.3,0
				c0.8,0,0.6,0.6,1,1C149.8,161.6,149.4,176.8,149.4,179.3z M149.4,138.3c0,2.5-1.2,2.1-1.4,2.3c-0.2,0.2-1.5,0-2,0
				c-0.5,0-0.7-0.7-0.7-0.7s0-19.2,0-19.7c0-0.6,0.2-1,0.8-1c0.8,0,1.5,0,2.3,0c0.8,0,0.6,0.6,1,1
				C149.8,120.6,149.4,135.9,149.4,138.3z"/>
			<polygon class="st3" points="22.5,68.5 76.1,68.5 75.9,74.1 67.6,74.1 91.3,95.9 120.7,74.1 109.9,74.1 109.9,68.5 141.3,68.5 
				141.3,74.1 131.2,74.1 93.5,101.6 93.5,132.7 99.9,132.7 99.9,138.1 56.3,138.1 56.3,132.4 66.5,132.4 66.5,107.5 29.6,74.1 
				22.5,74.1 			"/>
			<path class="st3" d="M179.2,122.7c-0.8-9.6-5.6-17.4-19.2-21c-0.8-0.2-3.3-0.4-3.3-0.4H98.8v6.2h6.7V183h-9.4l0.1,6.2l61.6,0
				c0.4-0.1,2.3-0.2,2.6-0.3c13-3.6,20-12.7,19.6-24.2c0-13.6-12.4-18.7-12.4-19.2C178,138.9,179.7,129.6,179.2,122.7z M151.1,179.2
				c0,0-0.1,3.4-3,3.4c-2.9,0-15.3,0-15.3,0v-34.3h15.5c0,0,2.8,1.1,2.8,4.1C151.1,155.4,151.1,179.2,151.1,179.2z M151.1,138.2
				c0,0-0.1,3.4-3,3.4c-2.9,0-15.3,0-15.3,0v-34.3h15.5c0,0,2.8,1.1,2.8,4.1C151.1,114.4,151.1,138.2,151.1,138.2z"/>
		</g>
		<g>
			<path class="st4" d="M35.7,61.4l-8.4-7.1l4-4.7c0.8-1,1.5-1.7,2.2-2.1c0.7-0.4,1.3-0.7,1.9-0.7c0.6,0,1.1,0.1,1.5,0.4
				c0.4,0.3,0.6,0.7,0.6,1.3c0.1,0.6,0,1.2-0.4,2c0.8-0.6,1.5-1,2.2-1.1c0.7-0.1,1.3,0.1,1.8,0.5c0.4,0.3,0.7,0.8,0.8,1.3
				c0.1,0.5,0.1,1.1,0,1.6c-0.1,0.5-0.4,1.1-0.8,1.7c-0.4,0.6-0.9,1.3-1.6,2.1L35.7,61.4z M32.3,55.6l2.3-2.7c0.6-0.7,1-1.3,1.2-1.7
				c0.3-0.5,0.4-0.9,0.4-1.3c0-0.4-0.2-0.7-0.5-0.9c-0.3-0.2-0.6-0.3-1-0.3c-0.4,0-0.8,0.2-1.2,0.5c-0.4,0.3-1,0.9-1.7,1.8l-2.1,2.5
				L32.3,55.6z M36.1,58.9l2.6-3.1c0.5-0.5,0.8-0.9,0.9-1.2c0.3-0.4,0.5-0.8,0.6-1.1c0.1-0.3,0.1-0.7,0.1-1
				c-0.1-0.3-0.2-0.6-0.5-0.8c-0.3-0.3-0.7-0.4-1.1-0.3c-0.4,0-0.9,0.2-1.3,0.6c-0.5,0.3-1,0.9-1.7,1.7l-2.5,2.9L36.1,58.9z"/>
			<path class="st4" d="M42.8,47.9l1.5-1.4c0.4,0.3,0.9,0.5,1.4,0.6c0.5,0,1.1-0.1,1.8-0.4c0.7-0.3,1.4-0.8,2.1-1.4
				c0.6-0.5,1.1-1.1,1.5-1.6c0.4-0.5,0.6-1,0.6-1.4c0-0.4,0-0.8-0.3-1c-0.2-0.3-0.5-0.4-0.9-0.4c-0.4,0-0.9,0.2-1.5,0.5
				c-0.4,0.2-1.3,0.7-2.6,1.5c-1.3,0.8-2.2,1.3-2.8,1.6c-0.8,0.3-1.4,0.4-2,0.4c-0.6-0.1-1-0.3-1.3-0.7c-0.4-0.4-0.5-1-0.5-1.6
				c0-0.7,0.3-1.4,0.8-2.2c0.5-0.8,1.2-1.5,2-2.3c0.9-0.8,1.8-1.4,2.7-1.8c0.9-0.4,1.7-0.6,2.4-0.5c0.7,0.1,1.3,0.3,1.7,0.8L48,37.8
				c-0.5-0.4-1.2-0.6-1.9-0.4c-0.7,0.2-1.6,0.6-2.5,1.5c-1,0.9-1.6,1.6-1.9,2.2c-0.2,0.6-0.2,1.1,0.1,1.5c0.3,0.3,0.6,0.4,1.1,0.3
				c0.5-0.1,1.5-0.6,3-1.6c1.5-1,2.6-1.6,3.2-1.9c0.9-0.4,1.7-0.6,2.3-0.5c0.6,0,1.2,0.3,1.5,0.7c0.4,0.4,0.6,1,0.5,1.7
				c0,0.7-0.3,1.5-0.8,2.3c-0.5,0.8-1.2,1.6-2.1,2.4c-1.1,1-2.2,1.7-3.1,2.1c-0.9,0.4-1.8,0.6-2.6,0.6C44,48.7,43.3,48.4,42.8,47.9z
				"/>
			<path class="st4" d="M64.9,31l2-0.8c0.2,1.3,0,2.5-0.6,3.6c-0.7,1.2-1.7,2.2-3.2,3.1c-1.5,0.9-2.9,1.5-4,1.7
				c-1.2,0.2-2.3,0-3.3-0.4c-1-0.5-1.7-1.1-2.3-2c-0.6-1-0.9-2-0.7-3c0.1-1.1,0.6-2.1,1.3-3.1c0.8-1,1.8-1.9,3-2.7
				c1.4-0.9,2.7-1.4,4-1.5c1.2-0.1,2.3,0.1,3.2,0.8l-1.6,1.4c-0.7-0.5-1.5-0.7-2.3-0.6c-0.8,0.1-1.7,0.4-2.6,1
				c-1.1,0.7-1.9,1.4-2.4,2.2c-0.5,0.8-0.7,1.6-0.7,2.3c0.1,0.8,0.3,1.4,0.7,2.1c0.5,0.8,1.1,1.4,1.8,1.7c0.7,0.4,1.5,0.5,2.4,0.3
				c0.9-0.2,1.8-0.5,2.6-1c1-0.6,1.8-1.4,2.3-2.2C65,32.8,65.2,32,64.9,31z"/>
			<path class="st4" d="M81,28.1l-1.5-4.4l-8-3.9l2.5-0.9l4.1,2.1c0.8,0.4,1.5,0.8,2.2,1.2c0.3-0.7,0.6-1.5,1.1-2.4l2-4.1l2.4-0.8
				L81.6,23l1.5,4.4L81,28.1z"/>
			<path class="st4" d="M87.4,20.3c-0.4-1.8,0-3.3,1-4.5c1-1.2,2.4-2.1,4.3-2.4c1.2-0.2,2.4-0.2,3.5,0c1.1,0.3,2,0.8,2.7,1.5
				c0.7,0.7,1.1,1.6,1.4,2.7c0.2,1.1,0.1,2.1-0.2,3.1c-0.4,1-1,1.8-1.9,2.4c-0.9,0.6-2,1.1-3.1,1.3c-1.3,0.3-2.4,0.2-3.5-0.1
				c-1.1-0.3-2-0.8-2.7-1.5C88.1,22,87.6,21.2,87.4,20.3z M89.3,19.9c0.3,1.3,0.9,2.2,1.9,2.8c1,0.6,2.2,0.7,3.5,0.5
				c1.3-0.3,2.4-0.9,3.1-1.8c0.7-0.9,0.9-2.1,0.7-3.5c-0.2-0.9-0.5-1.6-1-2.2c-0.5-0.6-1.1-1-1.9-1.2c-0.8-0.2-1.6-0.2-2.5-0.1
				c-1.3,0.3-2.3,0.8-3,1.7C89.2,17.1,89,18.3,89.3,19.9z"/>
			<path class="st4" d="M111.8,11.3l1.8-0.1l0.3,6.3c0.1,1.1-0.1,2-0.3,2.6c-0.3,0.7-0.8,1.2-1.6,1.7c-0.8,0.4-1.8,0.7-3.2,0.8
				c-1.3,0.1-2.3-0.1-3.2-0.4c-0.8-0.3-1.4-0.8-1.8-1.4c-0.4-0.7-0.6-1.6-0.7-2.7l-0.3-6.3l1.8-0.1L105,18c0,1,0.2,1.6,0.4,2.1
				c0.2,0.4,0.6,0.8,1.2,1c0.5,0.2,1.2,0.3,2,0.3c1.3-0.1,2.3-0.4,2.8-0.9c0.5-0.5,0.8-1.5,0.7-2.8L111.8,11.3z"/>
			<path class="st4" d="M117.1,22.2l0.9-10.9l1.9,0.2l6.4,9.2l0.7-8.6l1.7,0.1l-0.9,10.9L126,23l-6.4-9.2l-0.7,8.6L117.1,22.2z"/>
			<path class="st4" d="M137.9,20.8l0.3-1.3l5.6,1.3l-0.9,4c-1,0.4-2,0.6-3,0.6c-1,0.1-2,0-2.9-0.2c-1.3-0.3-2.4-0.8-3.4-1.5
				c-1-0.7-1.6-1.5-2-2.5c-0.3-1-0.4-2-0.2-3c0.2-1,0.7-1.9,1.5-2.7c0.8-0.8,1.7-1.3,2.8-1.5c1.1-0.2,2.3-0.1,3.7,0.2
				c1,0.2,1.8,0.6,2.5,1c0.7,0.4,1.3,0.9,1.6,1.5c0.3,0.6,0.5,1.2,0.6,2l-1.7,0c-0.1-0.6-0.2-1.1-0.4-1.5c-0.2-0.4-0.6-0.7-1.1-1
				c-0.5-0.3-1.1-0.6-1.8-0.7c-0.8-0.2-1.5-0.3-2.2-0.2c-0.6,0.1-1.2,0.2-1.6,0.4c-0.4,0.2-0.8,0.5-1.1,0.9c-0.5,0.6-0.8,1.3-1,2
				c-0.2,1-0.2,1.8,0.1,2.5c0.3,0.7,0.7,1.3,1.5,1.8c0.7,0.5,1.5,0.8,2.4,1c0.8,0.2,1.5,0.2,2.3,0.2c0.8-0.1,1.4-0.2,1.8-0.4l0.5-2
				L137.9,20.8z"/>
			<path class="st4" d="M150.9,29.3l4.7-9.9l5.6,2.7c1.1,0.5,2,1.1,2.6,1.6c0.6,0.5,1,1.1,1.2,1.7c0.2,0.6,0.2,1.1,0,1.6
				c-0.2,0.4-0.6,0.7-1.1,0.9c-0.5,0.2-1.2,0.3-2,0.2c0.8,0.6,1.4,1.2,1.6,1.9c0.3,0.7,0.3,1.3,0,1.8c-0.2,0.5-0.6,0.8-1.1,1.1
				c-0.5,0.3-1,0.4-1.5,0.4c-0.5,0-1.2-0.1-1.9-0.3c-0.7-0.2-1.5-0.5-2.5-1L150.9,29.3z M153.4,29.1l3.7,1.8
				c0.6,0.3,1.1,0.5,1.4,0.6c0.5,0.2,0.9,0.3,1.3,0.3c0.4,0,0.7,0,1-0.2c0.3-0.1,0.5-0.4,0.7-0.7c0.2-0.4,0.2-0.8,0-1.2
				c-0.2-0.4-0.5-0.8-0.9-1.1c-0.5-0.3-1.1-0.8-2.1-1.2l-3.4-1.6L153.4,29.1z M155.6,24.5l3.2,1.5c0.9,0.4,1.5,0.7,1.9,0.8
				c0.5,0.1,1,0.2,1.4,0c0.4-0.1,0.6-0.3,0.8-0.7c0.2-0.3,0.2-0.7,0.1-1c-0.1-0.4-0.4-0.7-0.8-1c-0.4-0.3-1.1-0.7-2.2-1.2l-3-1.4
				L155.6,24.5z"/>
			<path class="st4" d="M166.8,31.2c1-1.5,2.3-2.3,3.9-2.5c1.6-0.2,3.2,0.3,4.8,1.4c1,0.7,1.8,1.6,2.4,2.5c0.6,1,0.8,2,0.8,3
				c-0.1,1-0.4,2-1,2.9c-0.6,0.9-1.4,1.6-2.4,2c-1,0.4-2,0.5-3.1,0.3c-1.1-0.2-2.1-0.6-3.1-1.3c-1.1-0.7-1.9-1.6-2.4-2.6
				c-0.6-1-0.8-2-0.8-3C166,32.9,166.3,32,166.8,31.2z M168.3,32.3c-0.7,1.1-1,2.2-0.7,3.3c0.3,1.1,1,2.1,2.1,2.8
				c1.1,0.8,2.3,1.1,3.4,0.9c1.2-0.1,2.1-0.8,2.9-2c0.5-0.7,0.8-1.5,0.9-2.2c0.1-0.8-0.1-1.5-0.5-2.2c-0.4-0.7-1-1.3-1.7-1.8
				c-1.1-0.7-2.2-1.1-3.3-1C170.3,30.2,169.3,30.9,168.3,32.3z"/>
			<path class="st4" d="M178.5,46.5l3.1-3.5l-0.5-8.9l2,1.8l0.2,4.6c0,0.9,0,1.7,0,2.5c0.8-0.1,1.6-0.2,2.6-0.2l4.5-0.3l1.9,1.7
				l-9.1,0.3l-3.1,3.5L178.5,46.5z"/>
			<path class="st4" d="M187.9,50.3l1.4,1.5c-0.4,0.4-0.6,0.9-0.6,1.4c0,0.5,0.1,1.1,0.4,1.8c0.3,0.7,0.8,1.4,1.4,2.1
				c0.5,0.6,1.1,1.1,1.6,1.5c0.5,0.4,1,0.6,1.4,0.7c0.4,0.1,0.8,0,1-0.2c0.3-0.2,0.4-0.5,0.4-0.9c0-0.4-0.1-0.9-0.4-1.6
				c-0.2-0.4-0.7-1.3-1.5-2.6c-0.8-1.3-1.3-2.3-1.5-2.9c-0.3-0.8-0.4-1.4-0.3-2c0.1-0.6,0.3-1,0.7-1.3c0.4-0.4,1-0.5,1.6-0.4
				c0.7,0.1,1.4,0.4,2.2,0.9c0.8,0.5,1.5,1.2,2.2,2.1c0.8,0.9,1.4,1.8,1.8,2.7c0.4,0.9,0.5,1.7,0.5,2.4c-0.1,0.7-0.3,1.3-0.8,1.7
				l-1.4-1.5c0.5-0.5,0.6-1.2,0.5-1.9c-0.1-0.7-0.6-1.6-1.4-2.5c-0.8-1-1.6-1.6-2.2-1.9c-0.6-0.3-1.1-0.2-1.5,0
				c-0.3,0.3-0.4,0.6-0.3,1.1c0.1,0.5,0.6,1.5,1.5,3c0.9,1.5,1.5,2.6,1.8,3.2c0.4,0.9,0.6,1.7,0.5,2.3c-0.1,0.6-0.3,1.1-0.8,1.5
				c-0.4,0.4-1,0.5-1.7,0.5c-0.7-0.1-1.5-0.4-2.3-0.9c-0.8-0.5-1.6-1.3-2.4-2.2c-0.9-1.1-1.6-2.2-2.1-3.2c-0.4-1-0.6-1.8-0.5-2.7
				C187,51.5,187.3,50.8,187.9,50.3z"/>
		</g>
		<g>
			<path class="st5" d="M97.4,219.5l-1.7-0.3l1.6-8.5c-0.5,0.2-1,0.4-1.8,0.6c-0.7,0.2-1.3,0.3-1.9,0.4l0.2-1.3
				c1-0.2,1.9-0.4,2.7-0.8c0.8-0.4,1.4-0.8,1.8-1.2l1.1,0.2L97.4,219.5z"/>
			<path class="st5" d="M105.8,214.6c-0.7-0.3-1.2-0.6-1.5-1c-0.3-0.4-0.4-0.9-0.4-1.4c0.1-0.8,0.5-1.5,1.2-2
				c0.8-0.5,1.7-0.7,2.9-0.6c1.2,0.1,2.2,0.4,2.9,1c0.7,0.6,1,1.3,1,2.1c0,0.5-0.2,0.9-0.6,1.3c-0.4,0.4-0.9,0.6-1.6,0.8
				c0.8,0.3,1.5,0.7,1.9,1.2c0.4,0.5,0.6,1.1,0.5,1.8c-0.1,0.9-0.5,1.7-1.4,2.3c-0.9,0.6-2,0.8-3.4,0.7c-1.4-0.1-2.4-0.5-3.2-1.2
				c-0.8-0.7-1.2-1.5-1.1-2.5c0-0.7,0.3-1.3,0.8-1.8C104.3,215,104.9,214.7,105.8,214.6z M104.7,217.3c0,0.4,0.1,0.8,0.3,1.1
				c0.2,0.4,0.5,0.7,1,0.9c0.4,0.2,0.9,0.4,1.4,0.4c0.8,0.1,1.5-0.1,2.1-0.5c0.6-0.4,0.9-0.9,0.9-1.5c0-0.7-0.2-1.2-0.7-1.7
				c-0.5-0.5-1.2-0.7-2-0.8c-0.8-0.1-1.5,0.1-2,0.5C105,216.2,104.7,216.7,104.7,217.3z M105.6,212.2c0,0.5,0.1,1,0.5,1.3
				c0.4,0.4,0.9,0.6,1.6,0.6c0.7,0,1.2-0.1,1.6-0.4c0.4-0.3,0.7-0.7,0.7-1.2c0-0.5-0.2-0.9-0.6-1.3c-0.4-0.4-0.9-0.6-1.6-0.6
				c-0.6,0-1.2,0.1-1.6,0.4C105.9,211.4,105.6,211.8,105.6,212.2z"/>
			<path class="st5" d="M115.7,218.5l1.6-0.2c0.2,0.6,0.5,1,0.9,1.3c0.4,0.3,0.9,0.4,1.5,0.3c0.5,0,1-0.2,1.4-0.4
				c0.4-0.2,0.7-0.5,0.9-0.8c0.2-0.3,0.4-0.8,0.6-1.3c0.1-0.6,0.2-1.1,0.2-1.7c0-0.1,0-0.1,0-0.3c-0.3,0.5-0.8,0.8-1.3,1.1
				c-0.6,0.3-1.2,0.5-1.9,0.5c-1.1,0.1-2.1-0.2-3-0.8c-0.8-0.6-1.3-1.5-1.3-2.6c-0.1-1.1,0.3-2,1.1-2.8c0.8-0.7,1.8-1.1,3-1.2
				c0.9-0.1,1.7,0.1,2.5,0.4c0.8,0.3,1.4,0.9,1.8,1.6c0.4,0.7,0.7,1.7,0.8,3.1c0.1,1.4,0,2.6-0.4,3.4c-0.3,0.9-0.9,1.5-1.6,2
				c-0.7,0.5-1.6,0.8-2.6,0.8c-1.1,0.1-2-0.1-2.7-0.6C116.3,220,115.9,219.3,115.7,218.5z M122.3,213.2c0-0.8-0.3-1.4-0.9-1.8
				c-0.5-0.4-1.2-0.6-1.9-0.6c-0.8,0-1.4,0.3-1.9,0.9c-0.5,0.5-0.8,1.2-0.7,2c0,0.7,0.3,1.3,0.9,1.7c0.6,0.4,1.2,0.6,2,0.5
				c0.8,0,1.4-0.3,1.9-0.8C122.2,214.6,122.4,213.9,122.3,213.2z"/>
			<path class="st5" d="M129.8,213.6c-0.7-0.1-1.3-0.3-1.7-0.6c-0.4-0.3-0.7-0.7-0.8-1.3c-0.1-0.8,0.1-1.5,0.7-2.2
				c0.6-0.7,1.5-1.1,2.7-1.4c1.2-0.2,2.2-0.1,3,0.3c0.8,0.4,1.3,1,1.5,1.8c0.1,0.5,0,1-0.2,1.4c-0.3,0.4-0.7,0.8-1.3,1.2
				c0.9,0.1,1.6,0.3,2.1,0.7c0.5,0.4,0.9,0.9,1,1.6c0.2,0.9-0.1,1.8-0.8,2.6c-0.7,0.8-1.7,1.3-3.1,1.6c-1.3,0.3-2.5,0.1-3.4-0.3
				c-0.9-0.5-1.5-1.2-1.7-2.1c-0.1-0.7,0-1.3,0.3-1.9C128.5,214.4,129,214,129.8,213.6z M129.1,211.4c0.1,0.5,0.4,0.9,0.9,1.1
				c0.5,0.3,1,0.3,1.7,0.2c0.6-0.1,1.1-0.4,1.5-0.8c0.4-0.4,0.5-0.8,0.4-1.3c-0.1-0.5-0.4-0.9-0.9-1.1c-0.5-0.3-1-0.3-1.7-0.2
				c-0.6,0.1-1.1,0.4-1.5,0.8C129.1,210.6,129,211,129.1,211.4z M129.5,216.6c0.1,0.4,0.3,0.7,0.6,1c0.3,0.3,0.7,0.5,1.2,0.6
				c0.5,0.1,1,0.1,1.5,0c0.8-0.2,1.4-0.5,1.9-1c0.4-0.5,0.6-1.1,0.5-1.7c-0.1-0.6-0.5-1.1-1.1-1.4c-0.6-0.3-1.3-0.4-2.1-0.2
				c-0.8,0.1-1.4,0.5-1.8,1C129.5,215.4,129.4,215.9,129.5,216.6z"/>
		</g>
		<polygon class="st3" points="117,45.5 125,45.5 118.7,50.2 121.1,57.8 114.6,53 108.1,57.7 110.6,50.2 104.2,45.4 112.2,45.4 
			114.6,37.8 		"/>
	</g>
</g>
<g id="Ebene_2">
</g>
</svg>
